DBRep_DrawableShape

CASCADE Topology V1, (c) Matra-Datavision
Locations 43
1
              1               0               0               0 
              0               1               0               0 
              0               0               1               0 
1
              1               0               0               0 
              0               1               0               0 
              0               0               1               0 
1
              1               0               0               0 
              0               1               0               0 
              0               0               1               0 
1
              1               0               0               0 
              0               1               0               0 
              0               0               1               0 
1
              1               0               0               0 
              0               1               0               0 
              0               0               1               0 
2  2 1 3 -1 4 1 5 -1 0
1
              1               0               0               0 
              0               1               0               0 
              0               0               1               0 
2  7 -1 5 1 4 -1 3 1 2 -1 0
1
              1               0               0               0 
              0               1               0               0 
              0               0               1               0 
1
              1               0               0               0 
              0               1               0               0 
              0               0               1               0 
1
              1               0               0               0 
              0               1               0               0 
              0               0               1               0 
2  9 1 10 1 11 -1 0
2  7 -1 5 1 4 -1 3 1 2 -1 11 1 10 -1 9 -1 0
1
              1               0               0               0 
              0               1               0               0 
              0               0               1             1.5 
2  9 1 10 1 11 -1 14 1 0
2  7 -1 5 1 4 -1 3 1 2 -1 14 -1 11 1 10 -1 9 -1 0
2  4 1 5 -1 0
2  11 -1 2 1 3 -1 0
2  9 1 10 1 11 -1 2 1 3 -1 0
1
              1               0               0               0 
              0               1               0               0 
              0               0               1               0 
1
              1               0               0               0 
              0               1               0               0 
              0               0               1             1.5 
1
              1               0               0              -0 
              0               1               0              -0 
              0               0               1            -1.5 
2  20 1 21 1 3 -1 22 1 0
2  7 -1 5 1 4 -1 22 -1 3 1 21 -1 20 -1 0
2  11 -1 14 1 2 1 3 -1 0
2  9 1 10 1 11 -1 14 1 2 1 3 -1 0
2  20 1 21 1 3 -1 0
2  7 -1 5 1 4 -1 3 1 21 -1 20 -1 0
2  3 -1 22 1 4 1 5 -1 0
2  20 1 21 1 3 -1 22 1 4 1 5 -1 0
1
              1               0               0               0 
              0               1               0               0 
              0               0               1               0 
1
              1               0               0               0 
              0              -1               0               5 
              0               0              -1               0 
2  31 1 32 1 5 -1 0
2  7 -1 5 1 32 -1 31 -1 0
2  3 -1 4 1 5 -1 0
2  20 1 21 1 3 -1 4 1 5 -1 0
1
              1               0               0              -0 
              0               1               0              -0 
              0               0               1             1.5 
2  31 1 32 1 5 -1 37 1 0
2  7 -1 37 -1 5 1 32 -1 31 -1 0
2  5 -1 0
2  31 1 32 1 0
2  5 -1 37 1 0
1
2.22044604925031e-16 -2.22044604925031e-16               1 1.11022302462516e-15 
              1 2.22044604925031e-16 -2.22044604925031e-16               5 
-2.22044604925031e-16               1 2.22044604925031e-16 -1.11022302462516e-15 
Curve2ds 0
Curves 23
1 25.000000000000007 25 0 0 0 1 
1 -24.999999999999993 25 0 0 0 1 
1 25.000000000000007 25 0 -1 0 0 
1 25.000000000000007 25 0 -1 0 0 
1 25.000000000000007 -25 0 0 0 1 
1 25.000000000000007 -25 0 0 1 0 
1 25.000000000000007 -25 0 0 1 0 
1 -24.999999999999993 -25 0 0 0 1 
1 -24.999999999999993 25 0 0 -1 0 
1 -24.999999999999993 25 0 0 -1 0 
1 -24.999999999999993 -25 0 1 0 0 
1 15 15 0 -1 0 0 
1 -15 15 0 0 -1 0 
1 -15 -15 0 1 0 0 
1 15 -15 0 0 1 0 
1 -24.999999999999993 -25 0 1 0 0 
1 15 15 0 -1 0 0 
1 -15 15 0 0 -1 0 
1 -15 -15 0 1 0 0 
1 15 -15 0 0 1 0 
2 0 0 0 0 0 1 1 0 0 0 1 0 1.5
2 0 0 0 0 0 1 1 0 0 0 1 0 1.5
1 0 0 0 0 1 0 
Polygon3D 0
PolygonOnTriangulations 0
Surfaces 10
1 25.000000000000007 25 0 0 -1 0 -1 0 0 -0 -0 -1 
1 25.000000000000007 -25 0 -1 0 0 0 1 0 0 0 -1 
1 -24.999999999999993 25 0 1 0 0 0 -1 0 0 0 -1 
1 9.0949470177292826e-15 0 0 0 0 1 1 0 0 0 1 0 
1 9.0949470177292826e-15 0 0 0 0 1 1 0 0 0 1 0 
1 -24.999999999999993 -25 0 0 1 0 1 0 0 0 0 -1 
1 0 0 1.5 0 0 1 1 0 0 0 1 0 
1 0 0 1.5 0 0 1 1 0 0 0 1 0 
1 -1.1395334437828526e-16 5 0 0 0 1 1 0 0 0 1 0 
1 -1.1395334437828526e-16 5 0 0 0 1 1 0 0 0 1 0 
Triangulations 0

TShapes 71
Ve
1e-07
25 25 0
0 0

0101101
*
Ve
1e-07
25 25 1.5
0 0

0101101
*
Ed
 1e-07 1 1 0
1  1 0 0 1.5
0

0101000
+71 8 -70 8 *
Ve
1e-07
-25 25 0
0 0

0101101
*
Ve
1e-07
-25 25 1.5
0 0

0101101
*
Ed
 1e-07 1 1 0
1  2 0 0 1.5
0

0101000
+68 8 -67 8 *
Ed
 1e-07 1 1 0
1  3 0 0 50
0

0101000
+71 13 -68 13 *
Ed
 1e-07 1 1 0
1  4 0 0 50
0

0101000
+70 16 -67 16 *
Wi

0101100
+69 0 -66 0 -65 12 +64 15 *
Fa
0  1e-07 1 0

0111000
+63 0 *
Ve
1e-07
25 -25 0
0 0

0101101
*
Ve
1e-07
25 -25 1.5
0 0

0101101
*
Ed
 1e-07 1 1 0
1  5 0 0 1.5
0

0101000
+61 8 -60 8 *
Ed
 1e-07 1 1 0
1  6 0 0 50
0

0101000
+61 13 -71 13 *
Ed
 1e-07 1 1 0
1  7 0 0 50
0

0101000
+60 16 -70 16 *
Wi

0101100
+59 0 -69 0 -58 12 +57 15 *
Fa
0  1e-07 2 0

0111000
+56 0 *
Ve
1e-07
-25 -25 0
0 0

0101101
*
Ve
1e-07
-25 -25 1.5
0 0

0101101
*
Ed
 1e-07 1 1 0
1  8 0 0 1.5
0

0101000
+54 8 -53 8 *
Ed
 1e-07 1 1 0
1  9 0 0 50
0

0101000
+68 13 -54 13 *
Ed
 1e-07 1 1 0
1  10 0 0 50
0

0101000
+67 16 -53 16 *
Wi

0101100
+66 0 -52 0 -51 12 +50 15 *
Fa
0  1e-07 3 0

0111000
+49 0 *
Ed
 1e-07 1 1 0
1  11 0 0 50
0

0101000
+54 13 -61 13 *
Wi

0101100
+65 19 +58 19 +51 19 +47 19 *
Ve
1e-07
15 15 0
0 0

0101101
*
Ve
1e-07
-15 15 0
0 0

0101101
*
Ed
 1e-07 1 1 0
1  12 0 0 30
0

0101000
+45 24 -44 24 *
Ve
1e-07
-15 -15 0
0 0

0101101
*
Ed
 1e-07 1 1 0
1  13 0 0 30
0

0101000
+44 24 -42 24 *
Ve
1e-07
15 -15 0
0 0

0101101
*
Ed
 1e-07 1 1 0
1  14 0 0 30
0

0101000
+42 24 -40 24 *
Ed
 1e-07 1 1 0
1  15 0 0 30
0

0101000
+40 24 -45 24 *
Wi

0101100
-43 23 -41 23 -39 23 -38 23 *
Fa
0  1e-07 4 18

0111000
+46 0 +37 0 *
Ed
 1e-07 1 1 0
1  16 0 0 50
0

0101000
+53 16 -60 16 *
Wi

0101100
+64 26 +57 26 +50 26 +35 26 *
Ve
1e-07
15 15 1.5
0 0

0101101
*
Ve
1e-07
-15 15 1.5
0 0

0101101
*
Ed
 1e-07 1 1 0
1  17 0 0 30
0

0101000
+33 28 -32 28 *
Ve
1e-07
-15 -15 1.5
0 0

0101101
*
Ed
 1e-07 1 1 0
1  18 0 0 30
0

0101000
+32 28 -30 28 *
Ve
1e-07
15 -15 1.5
0 0

0101101
*
Ed
 1e-07 1 1 0
1  19 0 0 30
0

0101000
+30 28 -28 28 *
Ed
 1e-07 1 1 0
1  20 0 0 30
0

0101000
+28 28 -33 28 *
Wi

0101100
-31 27 -29 27 -27 27 -26 27 *
Fa
0  1e-07 5 25

0111000
+34 0 +25 0 *
Wi

0101100
+52 0 -59 0 -47 12 +35 15 *
Fa
0  1e-07 6 0

0111000
+23 0 *
Wi

0101100
+43 30 +38 30 +41 30 +39 30 *
Ve
1e-07
1.5 5 0
0 0

0101101
*
Ed
 1e-07 1 1 0
1  21 0 0 6.28318530717959
0

0101100
+20 34 -20 34 *
Wi

0101100
+19 33 *
Fa
0  1e-07 7 29

0111000
+21 0 +18 0 *
Wi

0101100
+31 36 +26 36 +29 36 +27 36 *
Ve
1e-07
1.5 5 1.5
0 0

0101101
*
Ed
 1e-07 1 1 0
1  22 0 0 6.28318530717959
0

0101100
+15 39 -15 39 *
Wi

0101100
+14 38 *
Fa
0  1e-07 8 35

0111000
+16 0 +13 0 *
Wi

0101100
+19 0 *
Fa
0  1e-07 9 0

0111000
-11 41 *
Wi

0101100
+14 0 *
Fa
0  1e-07 10 0

0111000
-9 41 *
Sh

0101100
-62 6 -55 6 -48 6 -36 17 +24 17 -22 6 -17 0 +12 0 -10 40 +8 42 
*
So

0100000
+7 0 *
Ve
1e-07
0 0 0
0 0

0101101
*
Ve
1e-07
0 1.5 0
0 0

0101101
*
Ed
 1e-07 1 1 0
1  23 0 0 1.5
0

0101000
+5 0 -4 0 *
Wi

0101000
+3 0 *
Co

1100000
+6 1 +2 43 *

+1 0 