DBRep_DrawableShape

CASCADE Topology V1, (c) Matra-Datavision
Locations 23
1
              1               0               0               0 
              0               1               0               0 
              0               0               1               0 
1
              1               0               0               0 
              0               1               0               0 
              0               0               1               0 
2  2 -1 0
1
              1               0               0               0 
              0               1               0               0 
              0               0               1               0 
1
              1               0               0               0 
              0               1               0               0 
              0               0               1               2 
1
              1               0               0               0 
              0               1               0               0 
              0               0               1               0 
2  4 1 5 1 6 -1 0
2  6 1 5 -1 4 -1 0
2  5 -1 4 -1 0
2  2 -1 6 1 5 -1 4 -1 0
1
              1               0               0               0 
              0               1               0               0 
              0               0               1             150 
2  4 1 5 1 6 -1 11 1 0
2  11 -1 6 1 5 -1 4 -1 0
2  2 -1 11 -1 6 1 5 -1 4 -1 0
2  6 -1 0
2  4 1 5 1 0
2  6 -1 11 1 0
1
              1               0               0               0 
              0               1               0               0 
              0               0               1               0 
1
              1               0               0               0 
              0               1               0               0 
              0               0               1               0 
2  19 -1 0
1
              1               0               0               0 
              0               1               0               0 
              0               0               1               0 
1
2.22044604925031e-16 -2.22044604925031e-16               1               0 
              1 2.22044604925031e-16 -2.22044604925031e-16               0 
-2.22044604925031e-16               1 2.22044604925031e-16               0 
2  22 -1 0
Curve2ds 9
1 0 0 0 -1 
1 6.2831853071795862 0 0 -1 
1 0 0 1 0 
1 0 -150 1 0 
7 0 0  9 18 3  70.710678118654755 70.710678118654755  46.027995128886765 95.393361108422468  11.652215370219514 110.38345963302956  -28.064600954972747 111.32836457848011  -66.502262803871361 96.166327150068895  -96.166327150055608 66.502262803858926  -111.32836457848983 28.064600954981241  -110.38345963302523 -11.652215370223303  -95.393361108423406 -46.027995128885841  -46.027995128886154 -95.393361108423107  -11.652215370220995 -110.3834596330267  28.064600954974985 -111.32836457848677  66.502262803868916 -96.166327150060496  96.166327150058081 -66.502262803865676  111.32836457848772 -28.064600954977529  110.38345963302662 11.652215370221958  95.393361108422866 46.027995128885948  70.710678118654755 70.710678118654755 
 0 10 3.1415926535897931 8 6.2831853071795862 10
7 0 0  1 2 2  -1.4142135623730949 6.6613381477509392e-16  6.6613381477509392e-16 1.4142135623730951 
 0 2 2 2
7 0 0  1 2 2  6.6613381477509392e-16 1.4142135623730951  1.4142135623730951 -6.6613381477509392e-16 
 0 2 2 2
7 0 0  1 2 2  1.4142135623730954 -4.4408920985006262e-16  -9.9920072216264089e-16 -1.4142135623730954 
 0 2 2 2
7 0 0  1 2 2  -9.9920072216264089e-16 -1.4142135623730954  -1.4142135623730949 8.8817841970012523e-16 
 0 2 2 2
Curves 8
1 2 0 2 0 0 1 
2 0 0 0 0 0 1 1 0 0 0 1 0 2
2 0 0 0 0 0 1 1 0 0 0 1 0 2
2 0 0 0 0 0 1 1 0 -0 -0 1 0 100
1 1 2.0000000000000004 0 0 -1 0 
1 1 4.4408920985006262e-16 0 -1 0 0 
1 -1 4.4408920985006262e-16 0 0 1 0 
1 -1 2.0000000000000004 0 1 0 0 
Polygon3D 0
PolygonOnTriangulations 11
2 1 2 
p 0.263333333333333 1 0 150 
2 29 28 
p 0.263333333333333 1 0 150 
27 1 30 31 32 33 34 35 36 37 38 39 40 41 42 43 44 45 46 47 48 49 50 51 52 53 54 29 
p 0.263333333333333 1 0 0.241660973353061 0.483321946706122 0.724982920059183 0.966643893412244 1.2083048667653 1.44996584011837 1.69162681347143 1.93328778682449 2.17494876017755 2.41660973353061 2.65827070688367 2.89993168023673 3.14159265358979 3.38325362694285 3.62491460029591 3.86657557364897 4.10823654700204 4.3498975203551 4.59155849370816 4.83321946706122 5.07488044041428 5.31654141376734 5.5582023871204 5.79986336047346 6.04152433382652 6.28318530717959 
27 1 2 3 4 5 6 7 8 9 10 11 12 13 14 15 16 17 18 19 20 21 22 23 24 25 26 1 
p 0.263333333333333 1 0 0.241660973353061 0.483321946706122 0.724982920059183 0.966643893412244 1.2083048667653 1.44996584011837 1.69162681347143 1.93328778682449 2.17494876017755 2.41660973353061 2.65827070688367 2.89993168023673 3.14159265358979 3.38325362694285 3.62491460029591 3.86657557364897 4.10823654700204 4.3498975203551 4.59155849370816 4.83321946706122 5.07488044041428 5.31654141376734 5.5582023871204 5.79986336047346 6.04152433382652 6.28318530717959 
27 2 3 4 5 6 7 8 9 10 11 12 13 14 15 16 17 18 19 20 21 22 23 24 25 26 27 28 
p 0.263333333333333 1 0 0.241660973353061 0.483321946706122 0.724982920059183 0.966643893412244 1.2083048667653 1.44996584011837 1.69162681347143 1.93328778682449 2.17494876017755 2.41660973353061 2.65827070688367 2.89993168023673 3.14159265358979 3.38325362694285 3.62491460029591 3.86657557364897 4.10823654700204 4.3498975203551 4.59155849370816 4.83321946706122 5.07488044041428 5.31654141376734 5.5582023871204 5.79986336047346 6.04152433382652 6.28318530717959 
27 1 2 3 4 5 6 7 8 9 10 11 12 13 14 15 16 17 18 19 20 21 22 23 24 25 26 1 
p 0.263333333333333 1 0 0.241660973353061 0.483321946706122 0.724982920059183 0.966643893412244 1.2083048667653 1.44996584011837 1.69162681347143 1.93328778682449 2.17494876017755 2.41660973353061 2.65827070688367 2.89993168023673 3.14159265358979 3.38325362694285 3.62491460029591 3.86657557364897 4.10823654700204 4.3498975203551 4.59155849370816 4.83321946706122 5.07488044041428 5.31654141376734 5.5582023871204 5.79986336047346 6.04152433382652 6.28318530717959 
32 1 2 3 4 5 6 7 8 9 10 11 12 13 14 15 16 17 18 19 20 21 22 23 24 25 26 27 28 29 30 31 1 
p 1.03516430040206 1 0 0.202683397005793 0.405366794011586 0.608050191017379 0.810733588023172 1.01341698502897 1.21610038203476 1.41878377904055 1.62146717604634 1.82415057305214 2.02683397005793 2.22951736706372 2.43220076406952 2.63488416107531 2.8375675580811 3.0402509550869 3.24293435209269 3.44561774909848 3.64830114610428 3.85098454311007 4.05366794011586 4.25635133712166 4.45903473412745 4.66171813113324 4.86440152813903 5.06708492514483 5.26976832215062 5.47245171915641 5.67513511616221 5.877818513168 6.08050191017379 6.28318530717959 
2 2 4 
p 0.0146666666666669 1 0 2 
2 4 3 
p 0.0146666666666669 1 0 2 
2 3 1 
p 0.0146666666666669 1 0 2 
2 1 2 
p 0.0146666666666669 1 0 2 
Surfaces 5
2 0 0 2 -0 -0 -1 1 0 0 0 1 0 2
1 -1.2819751242557095e-16 1.7475190490798498e-16 2 0 0 1 1 0 0 0 1 0 
1 -1.2819751242557095e-16 1.7475190490798498e-16 2 0 0 1 1 0 0 0 1 0 
9 0 0 0 0 8 8 9 9 2 2 -170.00513112392997 2.1236079267188119e-07 0  -144.22458243090426 19.412779002723134 0  -120.26537002869841 38.825564031531854 0  -98.127493769656795 58.238353543439281 0  -77.810953506136684 77.651145783126609 0  -59.315749090473645 97.0639389952279 0  -42.641880375030702 116.47673142443276 0  -27.789347212146069 135.889521315384 0  -14.75814945417342 155.30230691275193 0  
-144.22458243090401 -19.412778759863912 0  -118.44403390490889 3.0499686555519426e-08 0  -94.484821745192264 19.412782926815499 0  -72.346945557462931 38.825569525973883 0  -52.03040507085133 58.238359014078597 0  -33.535200137412495 77.651150166449369 0  -16.861330732824371 97.063941347596938 0  -2.0087969556492755 116.47673051128021 0  11.022400972084171 135.8895152004354 0  
-120.26537002869966 -38.825563918517666 0  -94.484821745189905 -19.412782995665509 0  -70.525608948787024 -9.9352729631829324e-08 0  -48.38773713899112 19.412742541377149 0  -28.07118883011967 38.825616236111394 0  -9.5759910210275532 58.238190624868885 0  7.0978895906493182 77.651166101800797 0  21.950419160234777 97.063938857726072 0  34.981617845418249 116.47669627697934 0  
-98.127493769654563 -58.238353508253795 0  -72.346945557468388 -38.825569672647035 0  -48.387737138989799 -19.412742817880606 0  -26.249840386475579 -1.7718920484185221e-07 0  -5.9333356338400192 19.412598786557602 0  12.561889419186647 38.826090760190169 0  29.235752896334567 58.238151281340208 0  44.088301668131855 77.651065690491919 0  57.119491377993469 97.063939102390094 0  
-77.810953506138318 -77.651145773750159 0  -52.030405070845383 -58.238359186572183 0  -28.071188830117293 -38.825616538453943 0  -5.9333356338465579 -19.412599166702755 0  14.383225031507578 -2.02985795283439e-07 0  32.878441246137911 19.41229004552947 0  49.552331887132091 38.826034681654932 0  64.404822180008068 58.238512521796792 0  77.436028913169594 77.651180157417926 0  
-59.315749090472551 -97.063938959648198 0  -33.535200137415394 -77.651150312721569 0  -9.5759910210365877 -58.238190900998781 0  12.561889419204393 -38.8260911141452 0  32.878441246122243 -19.412290425301066 0  51.373624927757383 -1.7677769358636334e-07 0  68.047484428717723 19.412311154593326 0  82.900046822815497 38.825503856492517 0  95.931235670717442 58.23837336634638 0  
-42.641880375031292 -116.47673131062807 0  -16.861330732823987 -97.063941415663152 0  7.0978895906582498 -77.651166299696854 0  29.235752896317468 -58.238151557070644 0  49.552331887148384 -38.826034983205247 0  68.047484428712252 -19.412311429922191 0  84.721393031003728 -9.8558999184206014e-08 0  99.573908268509626 19.41276233107655 0  112.60510793661717 38.825551627794631 0  
-27.789347212145724 -135.88952107133952 0  -2.0087969556495358 -116.47673044909408 0  21.950419160233285 -97.06393892539468 0  44.08830166813491 -77.651065835980802 0  64.404822180006192 -58.238512693097874 0  82.900046822815042 -38.825504001590602 0  99.573908268511346 -19.412762397950551 0  114.42644158740561 3.1684308510193646e-08 0  127.45763869724016 19.412779953304 0  
-14.758149454173338 -155.30230648645019 0  11.022400972084361 -135.88951495599591 0  34.981617845417851 -116.47669616238537 0  57.119491377994173 -97.063939065624865 0  77.436028913169665 -77.651180146461954 0  95.931235670717314 -58.238373329185592 0  112.60510793661713 -38.825551512411081 0  127.45763869724036 -19.412779707679611 0  140.48883571810529 2.1394079396941379e-07 0  

-109.69619182419932 9
109.9344303743902 9

-109.69619182419936 9
109.93443037439012 9

9 0 0 0 0 3 3 4 4 2 2 -7.1054273576010131e-16 3.6350279848648495e-14 3.1999999999999829  -3.848773152034065e-16 0.73333333333332462 2.4666666666666264  -5.921189464667907e-17 1.4666666666666359 1.733333333333313  2.6645352591005649e-16 2.2000000000000659 0.99999999999985179  
-7.1054273576008346e-16 -0.73333333333331663 2.4666666666667139  -3.8487731520339072e-16 -1.4176160245682471e-14 1.7333333333333443  -5.9211894646682188e-17 0.73333333333329309 1.0000000000001041  2.6645352591004515e-16 1.4666666666667025 0.2666666666666801  
-7.1054273576008711e-16 -1.4666666666666892 1.7333333333333369  -3.8487731520339486e-16 -0.73333333333330541 0.999999999999864  -5.9211894646665684e-17 -4.7462034302725458e-15 0.26666666666668287  2.6645352591003505e-16 0.73333333333332507 -0.4666666666666513  
-7.1054273576009687e-16 -2.2000000000000508 1.0000000000002069  -3.8487731520340793e-16 -1.4666666666666528 0.26666666666666644  -5.9211894646669665e-17 -0.73333333333333994 -0.46666666666668116  2.6645352591002597e-16 -1.3522516439934411e-14 -1.2000000000000326  

-1.5556349186104046 4
1.555634918610405 4

-1.555634918610405 4
1.5556349186104048 4

Triangulations 5
54 52 1 0.263333333333333
2 0 2 2 0 152 1.9418836348521 0.478631328575115 152 1.77091205130642 0.929446344087537 152 1.4970214963422 1.32624531648159 152 1.13612949346231 1.64596773178731 152 0.709209774085072 1.87003248537083 152 0.241073360510646 1.98541774819611 152 -0.241073360510646 1.98541774819611 152 -0.709209774085071 1.87003248537083 152 -1.13612949346231 1.64596773178731 152 -1.4970214963422 1.32624531648159 152 -1.77091205130642 0.929446344087538 152 -1.9418836348521 0.478631328575117 152 -2 2.02128619922972e-15 152 -1.9418836348521 -0.478631328575113 152 -1.77091205130642 -0.929446344087535 152 -1.4970214963422 -1.32624531648159 152 -1.13612949346231 -1.64596773178731 152 -0.709209774085075 -1.87003248537083 152 -0.241073360510651 -1.98541774819611 152 0.241073360510641 -1.98541774819611 152 0.709209774085066 -1.87003248537083 152 1.13612949346231 -1.64596773178732 152 1.4970214963422 -1.3262453164816 152 1.77091205130642 -0.929446344087543 152 1.9418836348521 -0.478631328575122 152 2 0 152 2 0 2 1.9418836348521 0.478631328575115 2 1.77091205130642 0.929446344087537 2 1.4970214963422 1.32624531648159 2 1.13612949346231 1.64596773178731 2 0.709209774085072 1.87003248537083 2 0.241073360510646 1.98541774819611 2 -0.241073360510646 1.98541774819611 2 -0.709209774085071 1.87003248537083 2 -1.13612949346231 1.64596773178731 2 -1.4970214963422 1.32624531648159 2 -1.77091205130642 0.929446344087538 2 -1.9418836348521 0.478631328575117 2 -2 2.02128619922972e-15 2 -1.9418836348521 -0.478631328575113 2 -1.77091205130642 -0.929446344087535 2 -1.4970214963422 -1.32624531648159 2 -1.13612949346231 -1.64596773178731 2 -0.709209774085075 -1.87003248537083 2 -0.241073360510651 -1.98541774819611 2 0.241073360510641 -1.98541774819611 2 0.709209774085066 -1.87003248537083 2 1.13612949346231 -1.64596773178732 2 1.4970214963422 -1.3262453164816 2 1.77091205130642 -0.929446344087543 2 1.9418836348521 -0.478631328575122 2 0 0 0 -150 0.241660973353061 -150 0.483321946706122 -150 0.724982920059183 -150 0.966643893412244 -150 1.2083048667653 -150 1.44996584011837 -150 1.69162681347143 -150 1.93328778682449 -150 2.17494876017755 -150 2.41660973353061 -150 2.65827070688367 -150 2.89993168023673 -150 3.14159265358979 -150 3.38325362694285 -150 3.62491460029591 -150 3.86657557364897 -150 4.10823654700204 -150 4.3498975203551 -150 4.59155849370816 -150 4.83321946706122 -150 5.07488044041428 -150 5.31654141376734 -150 5.5582023871204 -150 5.79986336047346 -150 6.04152433382652 -150 6.28318530717959 -150 6.28318530717959 0 0.241660973353061 0 0.483321946706122 0 0.724982920059183 0 0.966643893412244 0 1.2083048667653 0 1.44996584011837 0 1.69162681347143 0 1.93328778682449 0 2.17494876017755 0 2.41660973353061 0 2.65827070688367 0 2.89993168023673 0 3.14159265358979 0 3.38325362694285 0 3.62491460029591 0 3.86657557364897 0 4.10823654700204 0 4.3498975203551 0 4.59155849370816 0 4.83321946706122 0 5.07488044041428 0 5.31654141376734 0 5.5582023871204 0 5.79986336047346 0 6.04152433382652 0 30 1 2 30 2 3 31 3 4 31 4 5 31 30 3 32 5 6 32 31 5 33 32 6 34 6 7 34 7 8 34 33 6 35 34 8 36 8 9 36 9 10 36 35 8 37 36 10 38 10 11 38 11 12 38 37 10 39 12 13 39 38 12 40 39 13 41 40 13 41 13 14 42 41 14 42 14 15 43 15 16 43 42 15 44 16 17 44 43 16 44 17 18 45 44 18 46 18 19 46 45 18 47 19 20 47 46 19 48 20 21 48 21 22 48 47 20 49 48 22 50 22 23 50 23 24 50 49 22 51 50 24 52 24 25 52 51 24 53 25 26 53 52 25 54 26 27 54 27 28 54 53 26 29 54 28 
26 24 1 0.263333333333333
2 0 2 1.9418836348521 0.478631328575115 2 1.77091205130642 0.929446344087537 2 1.4970214963422 1.32624531648159 2 1.13612949346231 1.64596773178731 2 0.709209774085072 1.87003248537083 2 0.241073360510646 1.98541774819611 2 -0.241073360510646 1.98541774819611 2 -0.709209774085071 1.87003248537083 2 -1.13612949346231 1.64596773178731 2 -1.4970214963422 1.32624531648159 2 -1.77091205130642 0.929446344087538 2 -1.9418836348521 0.478631328575117 2 -2 2.02128619922972e-15 2 -1.9418836348521 -0.478631328575113 2 -1.77091205130642 -0.929446344087535 2 -1.4970214963422 -1.32624531648159 2 -1.13612949346231 -1.64596773178731 2 -0.709209774085075 -1.87003248537083 2 -0.241073360510651 -1.98541774819611 2 0.241073360510641 -1.98541774819611 2 0.709209774085066 -1.87003248537083 2 1.13612949346231 -1.64596773178732 2 1.4970214963422 -1.3262453164816 2 1.77091205130642 -0.929446344087543 2 1.9418836348521 -0.478631328575122 2 2 -6.66133814775094e-16 1.9418836348521 0.478631328575115 1.77091205130642 0.929446344087537 1.4970214963422 1.32624531648159 1.13612949346231 1.64596773178731 0.709209774085072 1.87003248537083 0.241073360510647 1.98541774819611 -0.241073360510646 1.98541774819611 -0.709209774085071 1.87003248537083 -1.13612949346231 1.64596773178731 -1.4970214963422 1.32624531648159 -1.77091205130642 0.929446344087538 -1.9418836348521 0.478631328575117 -2 1.77635683940025e-15 -1.9418836348521 -0.478631328575113 -1.77091205130642 -0.929446344087535 -1.4970214963422 -1.32624531648159 -1.13612949346231 -1.64596773178731 -0.709209774085075 -1.87003248537083 -0.241073360510651 -1.98541774819611 0.241073360510641 -1.98541774819611 0.709209774085066 -1.87003248537083 1.13612949346231 -1.64596773178732 1.4970214963422 -1.3262453164816 1.77091205130642 -0.929446344087543 1.9418836348521 -0.478631328575123 22 19 20 22 20 21 24 17 18 24 18 19 24 22 23 24 19 22 10 11 12 10 12 13 26 16 17 26 24 25 26 17 24 3 1 2 3 13 14 3 14 15 3 15 16 3 26 1 3 16 26 5 6 7 4 7 8 4 8 9 4 9 10 4 10 13 4 13 3 4 5 7 
26 24 1 0.263333333333333
2 0 2 1.9418836348521 0.478631328575115 2 1.77091205130642 0.929446344087537 2 1.4970214963422 1.32624531648159 2 1.13612949346231 1.64596773178731 2 0.709209774085072 1.87003248537083 2 0.241073360510646 1.98541774819611 2 -0.241073360510646 1.98541774819611 2 -0.709209774085071 1.87003248537083 2 -1.13612949346231 1.64596773178731 2 -1.4970214963422 1.32624531648159 2 -1.77091205130642 0.929446344087538 2 -1.9418836348521 0.478631328575117 2 -2 2.02128619922972e-15 2 -1.9418836348521 -0.478631328575113 2 -1.77091205130642 -0.929446344087535 2 -1.4970214963422 -1.32624531648159 2 -1.13612949346231 -1.64596773178731 2 -0.709209774085075 -1.87003248537083 2 -0.241073360510651 -1.98541774819611 2 0.241073360510641 -1.98541774819611 2 0.709209774085066 -1.87003248537083 2 1.13612949346231 -1.64596773178732 2 1.4970214963422 -1.3262453164816 2 1.77091205130642 -0.929446344087543 2 1.9418836348521 -0.478631328575122 2 2 -6.66133814775094e-16 1.9418836348521 0.478631328575115 1.77091205130642 0.929446344087537 1.4970214963422 1.32624531648159 1.13612949346231 1.64596773178731 0.709209774085072 1.87003248537083 0.241073360510647 1.98541774819611 -0.241073360510646 1.98541774819611 -0.709209774085071 1.87003248537083 -1.13612949346231 1.64596773178731 -1.4970214963422 1.32624531648159 -1.77091205130642 0.929446344087538 -1.9418836348521 0.478631328575117 -2 1.77635683940025e-15 -1.9418836348521 -0.478631328575113 -1.77091205130642 -0.929446344087535 -1.4970214963422 -1.32624531648159 -1.13612949346231 -1.64596773178731 -0.709209774085075 -1.87003248537083 -0.241073360510651 -1.98541774819611 0.241073360510641 -1.98541774819611 0.709209774085066 -1.87003248537083 1.13612949346231 -1.64596773178732 1.4970214963422 -1.3262453164816 1.77091205130642 -0.929446344087543 1.9418836348521 -0.478631328575123 22 19 20 22 20 21 24 17 18 24 18 19 24 22 23 24 19 22 10 11 12 10 12 13 26 16 17 26 24 25 26 17 24 3 1 2 3 13 14 3 14 15 3 15 16 3 26 1 3 16 26 5 6 7 4 7 8 4 8 9 4 9 10 4 10 13 4 13 3 4 5 7 
54 75 1 0.717871708102417
100 0 0 97.9529941252494 20.129852008866 0 91.8957811620231 39.4355855113319 0 82.0763441207276 57.1268215094792 0 68.8966919075687 72.479278722912 0 52.8964010326962 84.8644257494751 0 34.730525284482 93.775213214708 0 15.1427777504577 98.8468324328111 0 -5.06491688387126 99.8716507171053 0 -25.065253225872 96.8077118866204 0 -44.0394151557634 89.7804539570742 0 -61.2105982547663 79.0775736937698 0 -75.8758122692791 65.1372482722222 0 -87.4346616144582 48.5301962531081 0 -95.4139256400049 29.9363122973358 0 -99.4869323391895 10.1168321987432 0 -99.4869323391895 -10.1168321987432 0 -95.4139256400049 -29.9363122973358 0 -87.4346616144582 -48.5301962531081 0 -75.8758122692791 -65.1372482722222 0 -61.2105982547663 -79.0775736937699 0 -44.0394151557634 -89.7804539570742 0 -25.065253225872 -96.8077118866204 0 -5.06491688387127 -99.8716507171053 0 15.1427777504577 -98.8468324328111 0 34.730525284482 -93.775213214708 0 52.8964010326962 -84.8644257494751 0 68.8966919075687 -72.479278722912 0 82.0763441207276 -57.1268215094792 0 91.8957811620231 -39.4355855113319 0 97.9529941252494 -20.129852008866 0 -84.9447359616431 -3.55560203502137e-08 0 -78.2050522766032 -8.30352392010314 0 -71.390207566368 -6.40541699681307e-08 0 -31.9486733971269 -17.3671982610441 0 40.9956415055386 -78.4992273786368 0 47.0274066993851 21.3724122542056 0 40.9956415055385 78.4992273075249 0 85.5265293637057 -4.92683298602969e-08 0 -72.5116087580266 32.5686145285858 0 -36.6047576409807 -53.5738242112357 0 -32.7511983805466 32.5686161152566 0 5.48008575517853 -1.50581870528299e-07 0 -25.379328035975 39.5387840499684 0 -26.7762768856338 -57.0874503104396 0 -16.7477629658541 44.890226584742 0 -16.3763714803101 -58.6194174072017 0 -7.20988063575878 48.4038530528706 0 2.84383602418959 -49.9358204047039 0 2.8438360241896 49.9358201788311 0 25.3682868814317 -39.2496141190797 0 23.1116691800131 60.6220288308185 0 46.6477744829408 -28.5634036081314 0 66.6822988734546 -17.8771927601217 0 70.7106781186548 70.7106781186548 55.029263811696 83.497190059409 37.0949594183178 92.8653001348958 17.6419823436316 98.4314961151155 -2.53327022098443 99.9679068865053 -22.6048118507089 97.4116200905547 -41.7509026250186 90.867282066266 -59.1877019090475 80.60282297371 -74.201353464514 67.0384795519745 -86.1771997565958 50.7295793876878 -94.6249420567308 32.3438038400036 -99.198720828097 12.6338618844694 -99.7112869204708 -7.59331589844268 -96.1416682942827 -27.5096151541731 -88.6360093399835 -46.2996587112997 -77.5015703582999 -63.1941994683275 -63.1941994683278 -77.5015703582996 -46.2996587112998 -88.6360093399833 -27.5096151541732 -96.1416682942827 -7.59331589844274 -99.7112869204707 12.6338618844694 -99.1987208280969 32.3438038400036 -94.6249420567307 50.7295793876878 -86.1771997565958 67.0384795519745 -74.201353464514 80.60282297371 -59.1877019090475 90.867282066266 -41.7509026250186 97.4116200905547 -22.6048118507089 99.9679068865054 -2.53327022098441 98.4314961151155 17.6419823436317 92.8653001348957 37.0949594183178 83.4971900594089 55.029263811696 -61.8256417242279 -61.8256417242279 -51.8674920963627 -63.6104510373219 -53.6523014094568 -53.6523014094567 -16.3364036842481 -40.8973346814783 82.734987833545 -28.2796855604412 12.1150713253007 42.3402309478031 -28.2796855604412 82.734987833545 58.0367392293735 58.0367392293736 -76.6817941649638 -30.6228086539497 8.00370007787777 -67.7611383691045 -51.6463619383703 -5.5873764273562 -3.58143695626974 -3.58143695626973 -51.3900788921833 4.52621246409984 17.1965878517198 -63.5372672190371 -49.1031895065003 14.3811834418669 25.3510379338632 -57.5493440729962 -44.8793183564328 23.574071215709 31.7285212978524 -38.8913952103919 -38.8913952103919 31.7285212978524 39.5767754386376 -15.9305612583554 -31.0431410696067 54.6893552498888 47.4250295794229 7.03027269368098 55.2732837202081 29.9911066457174 32 16 17 33 17 18 33 18 19 33 32 17 34 32 33 35 34 33 35 33 19 36 25 26 36 26 27 36 27 28 37 3 4 37 4 5 38 5 6 38 6 7 38 7 8 38 37 5 39 1 2 39 2 3 39 31 1 39 3 37 40 13 14 40 14 15 40 15 16 40 16 32 40 32 34 41 19 20 41 20 21 41 21 22 41 35 19 42 35 43 42 40 34 42 13 40 42 34 35 44 12 13 44 13 42 44 42 43 45 41 22 45 35 41 46 11 12 46 12 44 46 44 43 47 22 23 47 23 24 47 45 22 47 35 45 48 46 43 48 10 11 48 11 46 49 35 47 49 24 25 49 43 35 49 47 24 49 25 36 50 48 43 50 9 10 50 43 37 50 10 48 51 43 49 51 49 36 52 8 9 52 50 37 52 38 8 52 37 38 52 9 50 53 43 51 53 28 29 53 37 43 53 51 36 53 36 28 54 37 53 54 29 30 54 30 31 54 31 39 54 39 37 54 53 29 
4 2 1 2.55351295663786e-15
-6.66133814775094e-16 -1 2 -2.22044604925031e-16 1 2 -2.22044604925031e-16 -1 6.66133814775094e-16 2.22044604925031e-16 1 2.22044604925031e-16 -8.88178419700125e-16 -1.4142135623731 -1.41421356237309 6.66133814775094e-16 1.41421356237309 -6.66133814775094e-16 6.66133814775094e-16 1.4142135623731 3 2 1 4 2 3 

TShapes 28
Ve
1e-07
2 0 2
0 0

0101101
*
Ve
1e-07
2 0 152
0 0

0101101
*
Ed
 1e-07 1 1 0
1  1 0 0 150
3  1 2CN 1 0 0 150
7  1 2 1 0
0

0101000
+28 3 -27 3 *
Ed
 1e-07 1 1 0
1  2 0 0 6.28318530717959
2  3 1 8 0 6.28318530717959
6  3 1 8
6  4 2 9
0

0101000
+28 10 -28 10 *
Ed
 1e-07 1 1 0
1  3 0 0 6.28318530717959
2  4 1 13 0 6.28318530717959
6  5 1 13
6  6 3 9
0

0101000
+27 14 -27 14 *
Wi

0101100
+26 0 -26 0 -25 7 +24 12 *
Fa
0  1e-07 1 0
2  1
0111000
+23 0 *
Wi

0101100
+25 0 *
Fa
0  1e-07 2 0
2  2
0111000
+21 16 *
Wi

0101100
+24 0 *
Fa
0  1e-07 3 0
2  3
0111000
+19 16 *
Sh

0101100
+22 0 +20 15 -18 17 *
So

0100000
-17 0 *
Ve
1.85113521534826e-05
100 0 0
0 0

0101101
*
Ed
 1.5625939540774e-05 1 1 0
1  4 0 0 6.28318530717959
2  5 4 20 0 6.28318530717959
6  7 4 20
0

0101000
+15 20 -15 20 *
Wi

0101100
+14 19 *
Fa
0  1e-07 4 0
2  4
0101000
+13 0 *
Ve
1e-07
-2.22044604925031e-16 1 2
0 0

0101101
*
Ve
1e-07
2.22044604925031e-16 1 2.22044604925031e-16
0 0

0101101
*
Ed
 1e-07 1 1 0
1  5 0 0 2
2  6 5 23 0 2
6  8 5 23
0

0101000
+11 23 -10 23 *
Ve
1e-07
-2.22044604925031e-16 -1 6.66133814775094e-16
0 0

0101101
*
Ed
 1e-07 1 1 0
1  6 0 0 2
2  7 5 23 0 2
6  9 5 23
0

0101000
+10 23 -8 23 *
Ve
1e-07
-6.66133814775094e-16 -1 2
0 0

0101101
*
Ed
 1e-07 1 1 0
1  7 0 0 2
2  8 5 23 0 2
6  10 5 23
0

0101000
+8 23 -6 23 *
Ed
 1e-07 1 1 0
1  8 0 0 2
2  9 5 23 0 2
6  11 5 23
0

0101000
+6 23 -11 23 *
Wi

0101100
+9 22 +7 22 +5 22 +4 22 *
Fa
0  1e-07 5 0
2  5
0101000
-3 0 *
Co

1100000
+16 1 +12 18 +2 21 *

+1 0 